<svg width="58" height="59" viewBox="0 0 58 59" fill="none" xmlns="http://www.w3.org/2000/svg">
<rect x="0.5" y="0.5" width="57" height="58" fill="white"/>
<path d="M20.942 39.234C19.798 39.234 18.784 38.9653 17.9 38.428C17.0333 37.8907 16.3573 37.1107 15.872 36.088C15.404 35.0653 15.17 33.852 15.17 32.448C15.17 31.0267 15.404 29.8133 15.872 28.808C16.3573 27.8027 17.0333 27.0313 17.9 26.494C18.784 25.9393 19.798 25.662 20.942 25.662C22.0687 25.662 23.0567 25.948 23.906 26.52C24.7727 27.0747 25.3447 27.8373 25.622 28.808H25.31V19.864H27.936V39H25.336V36.036H25.648C25.3533 37.024 24.7813 37.804 23.932 38.376C23.0827 38.948 22.086 39.234 20.942 39.234ZM21.592 37.18C22.7187 37.18 23.6287 36.7813 24.322 35.984C25.0153 35.1867 25.362 34.008 25.362 32.448C25.362 30.888 25.0153 29.718 24.322 28.938C23.6287 28.1407 22.7187 27.742 21.592 27.742C20.448 27.742 19.5293 28.1407 18.836 28.938C18.16 29.718 17.822 30.888 17.822 32.448C17.822 34.008 18.16 35.1867 18.836 35.984C19.5293 36.7813 20.448 37.18 21.592 37.18ZM31.7678 39V19.864H34.3938V31.616H34.4458L40.1658 25.896H43.4158L36.4998 32.786L36.5257 31.616L43.9878 39H40.6598L34.4458 32.994H34.3938V39H31.7678Z" fill="#4B21FF"/>
<rect x="0.5" y="0.5" width="57" height="58" stroke="#4B21FF"/>
</svg>
