<?xml version="1.0" encoding="utf-8"?><svg xmlns="http://www.w3.org/2000/svg" xmlns:xlink="http://www.w3.org/1999/xlink"><symbol viewBox="0 0 512 512" id="arrow-ok" xmlns="http://www.w3.org/2000/svg"><path d="M464.35 255.6c-1.19-86.7-54.27-164.33-135.55-195.32C247 29.09 150.45 55.1 95.1 122.79c-55.1 67.37-63.44 164.4-18.57 239.5 44.79 74.95 132.57 113.56 218.09 98.17 97.49-17.54 167.27-105.12 169.65-202.64.06-.71.09-1.46.08-2.22zM314 416.09c-67.8 24.3-144.8 3.05-190.53-52.58-45.1-54.87-50.47-134.67-14.19-195.46 36.11-60.43 108.4-93.58 177.79-80.3C367.74 103.2 425.31 174 426.43 255.6c-.98 71.01-44.85 136.27-112.43 160.49z"/><path d="M332.3 175.33l-95.75 121.84-47.71-31.23c-20.48-13.4-39.5 19.41-19.14 32.74l61.3 40.16c6.31 4.13 18 3.32 23-3l105.11-133.7c14.89-18.98-11.74-46-26.81-26.81z"/></symbol><symbol viewBox="0 0 32 32" id="arrow-right" xmlns="http://www.w3.org/2000/svg"><path d="M22 9a1 1 0 000 1.42l4.6 4.6H3.06a1 1 0 100 2h23.52L22 21.59A1 1 0 0022 23a1 1 0 001.41 0l6.36-6.36a.88.88 0 000-1.27L23.42 9A1 1 0 0022 9z" data-name="Layer 2"/></symbol><symbol viewBox="0 0 64 64" id="gitbook" xmlns="http://www.w3.org/2000/svg"><switch><g><path d="M28.8 47.4c1 0 1.9.8 1.9 1.9 0 1-.8 1.9-1.9 1.9-1 0-1.9-.8-1.9-1.9 0-1.1.9-1.9 1.9-1.9m29.4-11.6c-1 0-1.9-.8-1.9-1.9 0-1 .8-1.9 1.9-1.9 1 0 1.9.8 1.9 1.9 0 1-.9 1.9-1.9 1.9m0-7.7c-3.2 0-5.8 2.6-5.8 5.8 0 .6.1 1.2.3 1.8L33.6 45.9c-1.1-1.6-2.9-2.5-4.8-2.5-2.2 0-4.2 1.3-5.2 3.2l-17.2-9c-1.8-1-3.2-3.9-3-6.7.1-1.4.6-2.5 1.3-2.9.5-.3 1-.2 1.7.1l.1.1c4.6 2.4 19.5 10.2 20.1 10.5 1 .4 1.5.6 3.2-.2l30.8-16c.5-.2 1-.6 1-1.3 0-.9-.9-1.3-.9-1.3-1.8-.8-4.5-2.1-7.1-3.3C48 14 41.6 11 38.8 9.5c-2.4-1.3-4.4-.2-4.7 0l-.7.3C20.7 16.2 3.9 24.5 2.9 25.1c-1.7 1-2.8 3.1-2.9 5.7-.2 4.1 1.9 8.4 4.9 9.9l18.2 9.4c.4 2.8 2.9 5 5.7 5 3.2 0 5.7-2.5 5.8-5.7l20-10.8c1 .8 2.3 1.2 3.6 1.2 3.2 0 5.8-2.6 5.8-5.8 0-3.3-2.6-5.9-5.8-5.9"/></g></switch></symbol><symbol viewBox="0 0 15 15" id="github" xmlns="http://www.w3.org/2000/svg"><path d="M7.5.25a7.25 7.25 0 00-2.292 14.13c.363.066.495-.158.495-.35 0-.172-.006-.628-.01-1.233-2.016.438-2.442-.972-2.442-.972-.33-.838-.805-1.06-.805-1.06-.658-.45.05-.441.05-.441.728.051 1.11.747 1.11.747.647 1.108 1.697.788 2.11.602.066-.468.254-.788.46-.969-1.61-.183-3.302-.805-3.302-3.583a2.8 2.8 0 01.747-1.945c-.075-.184-.324-.92.07-1.92 0 0 .61-.194 1.994.744A6.963 6.963 0 017.5 3.756 6.97 6.97 0 019.315 4c1.384-.938 1.992-.743 1.992-.743.396.998.147 1.735.072 1.919.465.507.745 1.153.745 1.945 0 2.785-1.695 3.398-3.31 3.577.26.224.492.667.492 1.343 0 .97-.009 1.751-.009 1.989 0 .194.131.42.499.349A7.25 7.25 0 007.499.25z" fill-rule="evenodd" clip-rule="evenodd"/></symbol><symbol viewBox="0 0 15 15" id="instagram" xmlns="http://www.w3.org/2000/svg"><path fill-rule="evenodd" clip-rule="evenodd" d="M12.91 12.909c.326-.327.582-.72.749-1.151.16-.414.27-.886.302-1.578.032-.693.04-.915.04-2.68 0-1.765-.008-1.987-.04-2.68-.032-.692-.142-1.164-.302-1.578a3.185 3.185 0 00-.75-1.151 3.187 3.187 0 00-1.151-.75c-.414-.16-.886-.27-1.578-.302C9.487 1.007 9.265 1 7.5 1c-1.765 0-1.987.007-2.68.04-.692.03-1.164.14-1.578.301a3.2 3.2 0 00-1.151.75 3.2 3.2 0 00-.75 1.151c-.16.414-.27.886-.302 1.578C1.007 5.513 1 5.735 1 7.5c0 1.765.007 1.987.04 2.68.03.692.14 1.164.301 1.578.164.434.42.826.75 1.151.325.33.718.586 1.151.75.414.16.886.27 1.578.302.693.031.915.039 2.68.039 1.765 0 1.987-.008 2.68-.04.692-.03 1.164-.14 1.578-.301a3.323 3.323 0 001.151-.75zM2 6.735v1.53c-.002.821-.002 1.034.02 1.5.026.586.058 1.016.156 1.34.094.312.199.63.543 1.012.344.383.675.556 1.097.684.423.127.954.154 1.415.175.522.024.73.024 1.826.024H8.24c.842.001 1.054.002 1.526-.02.585-.027 1.015-.059 1.34-.156.311-.094.629-.2 1.011-.543.383-.344.556-.676.684-1.098.127-.422.155-.953.176-1.414C13 9.247 13 9.04 13 7.947v-.89c0-1.096 0-1.303-.023-1.826-.021-.461-.049-.992-.176-1.414-.127-.423-.3-.754-.684-1.098-.383-.344-.7-.449-1.011-.543-.325-.097-.755-.13-1.34-.156A27.29 27.29 0 008.24 2H7.057c-1.096 0-1.304 0-1.826.023-.461.021-.992.049-1.415.176-.422.128-.753.301-1.097.684-.344.383-.45.7-.543 1.012-.098.324-.13.754-.156 1.34-.022.466-.022.679-.02 1.5zM7.5 5.25a2.25 2.25 0 100 4.5 2.25 2.25 0 000-4.5zM4.25 7.5a3.25 3.25 0 116.5 0 3.25 3.25 0 01-6.5 0zm6.72-2.72a.75.75 0 100-1.5.75.75 0 000 1.5z"/></symbol><symbol viewBox="0 0 512 512" id="telegram" xmlns="http://www.w3.org/2000/svg"><path d="M256 0C114.615 0 0 114.615 0 256s114.615 256 256 256 256-114.615 256-256S397.385 0 256 0zm133.059 161.936L343.591 379a16.007 16.007 0 01-25.177 9.593l-66.136-48.861-40.068 37.8a5.429 5.429 0 01-7.74-.294l-.861-.946 6.962-67.375 125.484-114.651a3.358 3.358 0 00-4.061-5.317l-160.479 101.57-69.115-23.212a9.393 9.393 0 01-.32-17.694L372.5 147.744a12.441 12.441 0 0116.559 14.192z"/></symbol><symbol viewBox="0 0 56.693 56.693" id="whatsapp" xmlns="http://www.w3.org/2000/svg"><path d="M46.38 10.714c-4.65-4.657-10.836-7.222-17.426-7.225-13.579 0-24.63 11.05-24.636 24.633a24.589 24.589 0 003.289 12.316L4.112 53.204l13.06-3.426a24.614 24.614 0 0011.772 2.999h.01c13.577 0 24.63-11.052 24.635-24.635.002-6.582-2.558-12.772-7.209-17.428zM28.954 48.616h-.009a20.445 20.445 0 01-10.421-2.854l-.748-.444-7.75 2.033 2.07-7.555-.488-.775a20.427 20.427 0 01-3.13-10.897c.004-11.29 9.19-20.474 20.484-20.474a20.336 20.336 0 0114.476 6.005 20.352 20.352 0 015.991 14.485c-.004 11.29-9.19 20.476-20.475 20.476z"/><path d="M40.185 33.281c-.615-.308-3.642-1.797-4.206-2.003-.564-.205-.975-.308-1.385.308-.41.617-1.59 2.003-1.949 2.414-.359.41-.718.462-1.334.154-.615-.308-2.599-.958-4.95-3.055-1.83-1.632-3.065-3.648-3.424-4.264-.36-.617-.038-.95.27-1.257.277-.276.615-.719.923-1.078.308-.36.41-.616.616-1.027.205-.41.102-.77-.052-1.078-.153-.308-1.384-3.338-1.897-4.57-.5-1.2-1.008-1.038-1.385-1.057-.359-.018-.77-.022-1.18-.022s-1.077.154-1.642.77c-.564.616-2.154 2.106-2.154 5.135 0 3.03 2.206 5.957 2.513 6.368.308.41 4.341 6.628 10.516 9.294a35.341 35.341 0 003.509 1.297c1.474.469 2.816.402 3.877.244 1.183-.177 3.642-1.49 4.155-2.927.513-1.438.513-2.67.359-2.927-.154-.257-.564-.41-1.18-.719z"/></symbol></svg>