<?xml version="1.0" encoding="utf-8"?><svg xmlns="http://www.w3.org/2000/svg" xmlns:xlink="http://www.w3.org/1999/xlink"><symbol viewBox="0 0 209.92 203.04" id="1c_bitrix" xmlns="http://www.w3.org/2000/svg"><path d="M81.055 200.026c-17.571-3.639-33.966-11.755-46.837-23.186-33.044-29.347-43.256-75.45-25.8-116.47 4.287-10.074 11.256-20.298 19.891-29.18l7.613-7.83.537 45.83c.514 43.869.63 46.078 2.704 51.606 4.152 11.06 8.602 18.1 16.264 25.73 19.791 19.71 48.821 24.63 73.5 12.455 23.195-11.443 37.818-36.326 36.119-61.46-1.142-16.883-6.82-29.262-19.077-41.597-9.27-9.327-20.175-15.42-32.047-17.904-12.08-2.527-11.5-2.896-11.5 7.328v8.827l6.622 1.22c25.647 4.726 42.609 29.91 37.263 55.327-1.707 8.117-5.516 15.286-11.629 21.889-9.29 10.034-22.361 14.83-33.774 14.809-18.872-.037-34.63-10.76-42.267-26.619 0 0-2-4.532-2.644-7.334C52.212 96.995 54.63 62.32 54.63 62.32l-.293-50.702 2.993-1.548c1.646-.851 3.225-1.548 3.509-1.548.283 0 .643 23.288.8 51.75 0 0-3.635 37.31.856 51.608.648 2.063 1.879 5.592 1.879 5.592 3.937 8.022 10.248 15.078 18.448 18.962 6.224 2.948 9.358 4.283 18.566 4.283 6.017 0 11.347-1.9 17.48-4.72 7.23-3.325 15.523-12.141 18.588-20.19 8.444-22.177-3.314-46.037-25.965-52.69-9.257-2.719-9.068-2.868-9.068 7.198v8.792l4.443 1.189c16.018 4.284 20.905 25.753 8.331 36.784-4.443 3.898-8.446 5.62-15.448 5.62-7.483 0-14.665-4.529-18.358-11.475-2.218-4.173-2.405-8.13-2.405-9.944 0-16.744-.363-46.86-.363-46.86l-.3-51.657 2.3-.571C81.887 1.877 87 1.1 91.982.464c16.9-2.156 41.902 3.374 58.699 12.985 22.9 13.102 40.227 35.61 47.442 61.626 2.482 8.949 2.758 11.55 2.758 25.946 0 14.331-.283 17.02-2.712 25.772-9.812 35.359-34.773 60.635-70.463 71.355-7.512 2.257-11.03 2.687-24.284 2.97-10.696.228-17.629-.11-22.367-1.092z" fill="#c60c30"/></symbol><symbol viewBox="-140 0 566 566" preserveAspectRatio="xMinYMin meet" id="gulp" xmlns="http://www.w3.org/2000/svg"><path d="M197.28 548.749l5.427-90.43 14.985-25.58s-34.106 13.952-91.205 13.952c-57.1 0-90.689-13.694-90.689-13.694l16.794 27.904 5.941 87.848c0 9.418 31.059 17.052 69.374 17.052 38.313 0 69.373-7.634 69.373-17.052m-17.119-422.295l11.391-45.025 63.081-66.376L238.007.892l-66.784 70.707-13.226 53.793a886.14 886.14 0 00-29.873-.497c-70.336 0-127.355 8.016-127.355 17.902 0 9.887 57.019 17.902 127.355 17.902 70.335 0 127.353-8.015 127.353-17.902 0-7.28-30.924-13.546-75.316-16.343" fill="#D34A47"/><path d="M173.535 151.669s-2.467.553-9.724.584c-7.259.03-12.413-.047-14.466-1.917-.552-.502-.854-1.499-.851-2.174.006-1.285.918-2.042 2.08-2.516l1.099 1.724c-.478.165-.751.36-.752.568-.004.976 7.422 1.644 13.102 1.572 5.681-.07 12.545-.538 12.551-1.5 0-.291-.519-.565-1.422-.781l1.094-1.712c1.472.457 2.757 1.34 2.754 2.868-.014 2.598-3.32 2.993-5.465 3.284" fill="#FFF"/><path d="M254.509 15.184c1.586-1.832-.821-6.518-5.376-10.465C244.576.774 239.596-.94 238.007.892c-1.587 1.832.821 6.518 5.378 10.463 4.555 3.946 9.537 5.662 11.124 3.829m-60.263 312.681c-1.495-14.384 31.462-35.216 23.004-35.883-18.208 1.041-27.27 21.338-36.431 42.596-3.357 7.791-14.844 41.013-22.378 36.923-7.532-4.088 9.765-31.407 14.613-47.631-5.594 4.102-26.109 20.041-31.396 5.114-8.5 7.219-26.663 11.13-24.614-7.833-4.522 8.01-14.671 19.193-26.853 14.546-15.998-6.101 9.27-57.062 15.553-54.491 6.284 2.57-1.268 14.179-3.246 18.687-4.35 9.921-9.375 22.393-6.018 24.946 5.751 4.374 21.401-16.547 21.749-17.007 2.927-3.867 11.266-29.166 17.987-26.261 6.721 2.905-16.764 36.308-7.983 42.937 1.771 1.338 9.017-.825 13.425-5.594 2.852-3.085 1.871-9.918 11.378-32.59 9.507-22.671 17.98-50.905 24.5-48.754 6.52 2.15 1.146 16.641-1.193 22.043-10.976 25.354-29.956 67.241-21.005 64.07 8.951-3.17 13.612-3.356 22.377-13.613 8.765-10.257 8.361-27.152 14.203-26.793 5.844.36 4.863 5.777 3.446 9.902 5.75-6.58 27.256-20.438 32.448-6.713 6.15 16.249-30.769 39.72-21.564 38.523 8.975-1.167 23.515-10.376 29.723-18.749l17.088-153.626s-17.195 14.23-126.589 14.23c-109.395 0-124.811-13.934-124.811-13.934l14.548 140.224c7.722-21.947 26.059-66.339 54.963-64.849 13.148.678 30.7 25.995 15.665 26.853-6.364.362-7.01-12.637-14.546-14.546-5.438-1.378-13.009 3.043-17.902 7.833-9.758 9.55-30.745 47.229-27.972 66.014 3.533 23.949 33.048-8.322 38.042-17.903 3.517-6.749 5.893-26.745 13.585-24.647 7.693 2.098-.671 22.734-6.247 40.979-6.264 20.487-9.557 42.098-17.408 39.612-7.852-2.484 4.938-28.932 4.475-33.566-7.38 6.809-20.976 24.047-38.37 15.515l9.035 87.078s24.013 18.973 96.35 18.973c72.337 0 97.239-18.677 97.239-18.677l11.219-100.857c-9.179 8.938-38.229 24.81-40.089 6.919" fill="#D34A47"/></symbol><symbol viewBox="0 0 32 32" id="html" xmlns="http://www.w3.org/2000/svg"><path fill="#E44D26" d="M27.377 28.889L16.001 32 4.625 28.889 2 0h28.002z"/><path fill="#FF6C39" d="M16 2v27.75l9.232-2.742L27.688 2z"/><path fill="#FFF" d="M24.363 6H7.607L8 10l.619 7h10.884l-.355 3.984L16 21.99l-3.143-1.006L12.648 19H8.803l.459 4.987L16 25.99l6.728-2.004.99-10.986H12.252l-.25-3H24z"/></symbol><symbol viewBox="0 0 512 512" id="js" xmlns="http://www.w3.org/2000/svg"><path fill="#f0db4f" d="M26.002 26.001h459.996v459.998H26.002z"/><path d="M276.331 384.759c0 44.767-26.286 65.2-64.586 65.2-34.601 0-54.623-17.865-64.892-39.529l35.218-21.255c6.777 12.013 12.938 22.177 27.826 22.177 14.169 0 23.207-5.544 23.207-27.208V237.21h43.227v147.549zm102.267 65.2c-40.147 0-66.124-19.099-78.754-44.151l35.219-20.332c9.241 15.095 21.356 26.286 42.611 26.286 17.866 0 29.364-8.932 29.364-21.355 0-14.787-11.704-20.021-31.52-28.75l-10.781-4.62c-31.214-13.246-51.853-29.983-51.853-65.2 0-32.447 24.745-57.09 63.248-57.09 27.518 0 47.232 9.549 61.402 34.603l-33.679 21.562c-7.392-13.246-15.401-18.481-27.825-18.481-12.63 0-20.639 8.01-20.639 18.481 0 12.938 8.009 18.176 26.594 26.285l10.78 4.621c36.759 15.71 57.397 31.832 57.397 67.974.002 38.81-30.597 60.167-71.564 60.167z" fill="#323330"/></symbol><symbol viewBox="0 0 256 230" preserveAspectRatio="xMinYMin meet" id="react" xmlns="http://www.w3.org/2000/svg"><path d="M.754 114.75c0 19.215 18.763 37.152 48.343 47.263-5.907 29.737-1.058 53.706 15.136 63.045 16.645 9.6 41.443 2.955 64.98-17.62 22.943 19.744 46.13 27.514 62.31 18.148 16.63-9.627 21.687-35.221 15.617-65.887 30.81-10.186 48.044-25.481 48.044-44.949 0-18.769-18.797-35.006-47.979-45.052 6.535-31.933.998-55.32-15.867-65.045-16.259-9.376-39.716-1.204-62.996 19.056C104.122 2.205 80.897-4.36 64.05 5.392 47.806 14.795 43.171 39.2 49.097 69.487 20.515 79.452.754 96.057.754 114.75z" fill="#FFF"/><path d="M201.025 79.674a151.364 151.364 0 00-7.274-2.292 137.5 137.5 0 001.124-4.961c5.506-26.728 1.906-48.26-10.388-55.348-11.787-6.798-31.065.29-50.535 17.233a151.136 151.136 0 00-5.626 5.163 137.573 137.573 0 00-3.744-3.458c-20.405-18.118-40.858-25.752-53.139-18.643-11.776 6.817-15.264 27.06-10.307 52.39a150.91 150.91 0 001.67 7.484 149.875 149.875 0 00-8.363 2.63c-23.922 8.34-39.2 21.412-39.2 34.97 0 14.004 16.4 28.05 41.318 36.566a128.44 128.44 0 006.11 1.91 147.813 147.813 0 00-1.775 8.067c-4.726 24.89-1.035 44.653 10.71 51.428 12.131 6.995 32.491-.195 52.317-17.525 1.567-1.37 3.14-2.823 4.715-4.346a148.34 148.34 0 006.108 5.573c19.204 16.525 38.17 23.198 49.905 16.405 12.12-7.016 16.058-28.247 10.944-54.078-.39-1.973-.845-3.988-1.355-6.04 1.43-.422 2.833-.858 4.202-1.312 25.904-8.582 42.757-22.457 42.757-36.648 0-13.607-15.77-26.767-40.174-35.168z" fill="#53C1DE"/><path d="M195.406 142.328c-1.235.409-2.503.804-3.795 1.187-2.86-9.053-6.72-18.68-11.442-28.625 4.507-9.71 8.217-19.213 10.997-28.208 2.311.67 4.555 1.375 6.717 2.12 20.91 7.197 33.664 17.84 33.664 26.04 0 8.735-13.775 20.075-36.14 27.486zm-9.28 18.389c2.261 11.422 2.584 21.749 1.086 29.822-1.346 7.254-4.052 12.09-7.398 14.027-7.121 4.122-22.35-1.236-38.772-15.368a138.39 138.39 0 01-5.682-5.18c6.367-6.964 12.73-15.06 18.94-24.05 10.924-.969 21.244-2.554 30.603-4.717.46 1.86.87 3.683 1.223 5.466zm-93.85 43.137c-6.957 2.457-12.498 2.527-15.847.596-7.128-4.11-10.09-19.98-6.049-41.265a138.507 138.507 0 011.65-7.502c9.255 2.047 19.5 3.52 30.45 4.408 6.251 8.797 12.798 16.883 19.396 23.964a118.863 118.863 0 01-4.305 3.964c-8.767 7.664-17.552 13.1-25.294 15.835zm-32.593-61.58c-11.018-3.766-20.117-8.66-26.354-14-5.604-4.8-8.434-9.565-8.434-13.432 0-8.227 12.267-18.722 32.726-25.855a139.276 139.276 0 017.777-2.447c2.828 9.197 6.537 18.813 11.013 28.537-4.534 9.869-8.296 19.638-11.15 28.943a118.908 118.908 0 01-5.578-1.746zm10.926-74.37c-4.247-21.703-1.427-38.074 5.67-42.182 7.56-4.376 24.275 1.864 41.893 17.507 1.126 1 2.257 2.047 3.39 3.13-6.564 7.049-13.051 15.074-19.248 23.82-10.627.985-20.8 2.567-30.152 4.686a141.525 141.525 0 01-1.553-6.962zm97.467 24.067a306.982 306.982 0 00-6.871-11.3c7.21.91 14.117 2.12 20.603 3.601-1.947 6.241-4.374 12.767-7.232 19.457a336.42 336.42 0 00-6.5-11.758zm-39.747-38.714c4.452 4.823 8.911 10.209 13.297 16.052a284.245 284.245 0 00-26.706-.006c4.39-5.789 8.887-11.167 13.409-16.046zm-40.002 38.78a285.24 285.24 0 00-6.378 11.685c-2.811-6.667-5.216-13.222-7.18-19.552 6.447-1.443 13.322-2.622 20.485-3.517a283.79 283.79 0 00-6.927 11.384zm7.133 57.683c-7.4-.826-14.379-1.945-20.824-3.348 1.995-6.442 4.453-13.138 7.324-19.948a283.494 283.494 0 006.406 11.692 285.27 285.27 0 007.094 11.604zm33.136 27.389c-4.575-4.937-9.138-10.397-13.595-16.27 4.326.17 8.737.256 13.22.256 4.606 0 9.159-.103 13.64-.303-4.4 5.98-8.843 11.448-13.265 16.317zm46.072-51.032c3.02 6.884 5.566 13.544 7.588 19.877-6.552 1.495-13.625 2.699-21.078 3.593a337.537 337.537 0 006.937-11.498 306.632 306.632 0 006.553-11.972zm-14.915 7.15a316.478 316.478 0 01-10.84 17.49c-6.704.479-13.632.726-20.692.726-7.031 0-13.871-.219-20.458-.646A273.798 273.798 0 0196.72 133.28a271.334 271.334 0 01-9.64-18.206 273.864 273.864 0 019.611-18.216v.002a271.252 271.252 0 0110.956-17.442 273.484 273.484 0 0141.188.006 290.704 290.704 0 0110.887 17.383 316.418 316.418 0 019.741 18.13 290.806 290.806 0 01-9.709 18.29zm19.913-107.792c7.566 4.364 10.509 21.961 5.755 45.038a127.525 127.525 0 01-1.016 4.492c-9.374-2.163-19.554-3.773-30.212-4.773-6.209-8.841-12.642-16.88-19.1-23.838a141.92 141.92 0 015.196-4.766c16.682-14.518 32.273-20.25 39.377-16.153z" fill="#FFF"/><path d="M128.221 94.665c11.144 0 20.177 9.034 20.177 20.177 0 11.144-9.033 20.178-20.177 20.178-11.143 0-20.177-9.034-20.177-20.178 0-11.143 9.034-20.177 20.177-20.177" fill="#53C1DE"/></symbol><symbol viewBox="0 0 512 512" id="sass" xmlns="http://www.w3.org/2000/svg"><path d="M422.009 281.793c-16.096.071-30.035 3.952-41.675 9.701-4.24-8.553-8.624-16.025-9.343-21.629-.86-6.54-1.796-10.419-.789-18.179 1.007-7.762 5.532-18.756 5.461-19.545-.071-.79-1.006-4.743-10.275-4.815-9.269-.071-17.244 1.796-18.179 4.239-.936 2.443-2.73 7.977-3.808 13.725-1.653 8.407-18.54 38.443-28.097 54.107-3.161-6.106-5.819-11.497-6.395-15.808-.862-6.54-1.796-10.419-.79-18.179 1.006-7.762 5.532-18.756 5.46-19.545-.072-.79-1.006-4.743-10.274-4.815-9.27-.071-17.244 1.796-18.18 4.24-.934 2.442-1.94 8.191-3.808 13.726-1.867 5.53-24.359 55.541-30.251 68.548-3.019 6.609-5.604 11.927-7.473 15.521-.286.574-.502.934-.646 1.222.215-.359.36-.72.36-.574a257.052 257.052 0 01-2.516 4.813v.071c-1.222 2.299-2.587 4.382-3.233 4.382-.432 0-1.365-6.034.216-14.298 3.376-17.389 11.352-44.404 11.28-45.34-.072-.503 1.508-5.173-5.246-7.689-6.538-2.371-8.91 1.582-9.484 1.582s-1.006 1.438-1.006 1.438 7.258-30.467-13.94-30.467c-13.221 0-31.615 14.516-40.668 27.665-5.677 3.09-17.965 9.772-30.898 16.885-4.958 2.731-10.06 5.532-14.874 8.192-.359-.361-.647-.72-1.006-1.079-25.724-27.447-73.22-46.848-71.207-83.711.718-13.437 5.389-48.716 91.327-91.542 70.418-35.065 126.751-25.436 136.453-4.024 13.938 30.539-30.109 87.376-103.256 95.566-27.88 3.09-42.537-7.688-46.202-11.711-3.809-4.239-4.384-4.456-5.821-3.665-2.372 1.293-.862 5.03 0 7.257 2.156 5.676 11.137 15.736 26.443 20.766 13.435 4.383 46.13 6.827 85.649-8.479 44.406-17.102 78.969-64.742 68.837-104.62-10.346-40.525-77.53-53.819-141.121-31.257-37.867 13.437-78.824 34.563-108.285 62.082-34.993 32.767-40.597 61.292-38.299 73.221 8.192 42.321 66.537 69.914 89.89 90.32-1.15.647-2.228 1.222-3.233 1.797-11.712 5.819-56.19 29.1-67.328 53.677-12.573 27.879 2.083 47.853 11.712 50.585 30.035 8.334 60.789-6.683 77.316-31.33 16.525-24.645 14.514-56.836 6.898-71.495-.073-.215-.216-.357-.287-.575 3.017-1.795 6.106-3.592 9.197-5.388 5.963-3.521 11.784-6.756 16.885-9.556-2.875 7.761-4.958 17.098-6.036 30.609-1.293 15.807 5.246 36.286 13.725 44.334 3.735 3.521 8.262 3.594 11.065 3.594 9.916 0 14.37-8.193 19.328-17.965 6.108-11.93 11.497-25.798 11.497-25.798s-6.754 37.511 11.712 37.511c6.754 0 13.51-8.695 16.526-13.15v.071s.145-.286.504-.86c.718-1.079 1.077-1.726 1.077-1.726v-.217c2.73-4.67 8.695-15.377 17.675-33.052 11.642-22.851 22.778-51.378 22.778-51.378s1.006 6.972 4.457 18.54c2.011 6.826 6.25 14.299 9.627 21.557-2.729 3.736-4.383 5.892-4.383 5.892s0 .071.07.143a225.373 225.373 0 01-7.112 8.984c-9.198 10.921-20.12 23.425-21.556 27.017-1.726 4.24-1.294 7.399 2.012 9.844 2.442 1.869 6.754 2.155 11.28 1.797 8.264-.577 14.084-2.587 16.886-3.883 4.454-1.578 9.629-4.095 14.515-7.615 8.982-6.609 14.444-16.094 13.939-28.597-.287-6.898-2.516-13.797-5.246-20.262.791-1.151 1.654-2.374 2.444-3.593 14.229-20.769 25.222-43.544 25.222-43.544s1.006 6.968 4.454 18.537c1.725 5.821 5.102 12.216 8.191 18.466-13.365 10.851-21.627 23.427-24.502 31.688-5.318 15.306-1.15 22.202 6.682 23.786 3.521.718 8.551-.936 12.288-2.517 4.67-1.581 10.275-4.096 15.52-7.976 8.982-6.609 17.677-15.88 17.103-28.454-.217-5.677-1.797-11.353-3.881-16.814 11.28-4.741 25.941-7.33 44.622-5.173 40.023 4.67 47.854 29.675 46.345 40.093-1.507 10.492-9.914 16.241-12.717 17.965-2.804 1.725-3.665 2.372-3.448 3.665.358 1.868 1.651 1.797 4.022 1.364 3.307-.574 20.982-8.479 21.771-27.808 1.152-24.431-22.343-51.303-63.947-51.088zM113.538 385.766c-13.22 14.443-31.759 19.904-39.734 15.305-8.551-4.956-5.174-26.226 11.137-41.604 9.916-9.34 22.706-17.962 31.185-23.279 1.94-1.149 4.743-2.874 8.192-4.958.575-.357.862-.502.862-.502.646-.433 1.365-.791 2.084-1.223 5.962 21.844.214 41.1-13.726 56.261zm96.573-65.675c-4.599 11.28-14.3 40.023-20.19 38.514-5.03-1.294-8.121-23.209-1.006-44.764 3.592-10.851 11.208-23.784 15.736-28.813 7.256-8.121 15.232-10.708 17.101-7.474 2.514 4.239-8.768 35.496-11.641 42.537zm79.757 38.085c-1.939 1.005-3.736 1.651-4.598 1.148-.646-.359.791-1.725.791-1.725s9.986-10.706 13.939-15.594a679.32 679.32 0 007.832-9.986c0 .357.07.719.07 1.148-.069 12.864-12.428 21.56-18.034 25.009zm61.509-14.013c-1.437-1.006-1.223-4.383 3.592-14.875 1.869-4.096 6.181-10.993 13.652-17.604.863 2.73 1.365 5.316 1.365 7.759-.073 16.168-11.64 22.204-18.609 24.72z" fill="#cf649a"/></symbol><symbol viewBox="0 0 48 48" id="typescript" xmlns="http://www.w3.org/2000/svg"><path fill="#1976d2" d="M6 6h36v36H6z"/><path fill="#fff" d="M27.49 22H14.227v3.264h4.757V40h3.769V25.264h4.737zm11.704 4.084s-1.787-1.192-3.807-1.192-2.747.96-2.747 1.986c0 2.648 7.381 2.383 7.381 7.712 0 8.209-11.254 4.568-11.254 4.568V35.22s2.152 1.622 4.733 1.622 2.483-1.688 2.483-1.92c0-2.449-7.315-2.449-7.315-7.878 0-7.381 10.658-4.469 10.658-4.469l-.132 3.509z"/></symbol><symbol viewBox="0 0 73 73" id="vue" xmlns="http://www.w3.org/2000/svg"><g fill="none"><rect x="-1" y="-1" rx="14" transform="translate(2 2)" fill="#FFF" stroke="#34495E" stroke-width="2"/><path d="M42.808 14.393l-5.931 10.272-5.931-10.272h-19.75l25.68 44.482 25.682-44.482z" fill="#41B883"/><path d="M42.808 14.393l-5.931 10.272-5.931-10.272h-9.478L36.877 41.08l15.409-26.688z" fill="#34495E"/></g></symbol><symbol viewBox="0 0 32 32" id="wp" xmlns="http://www.w3.org/2000/svg"><path d="M16 0C7.178 0 0 7.178 0 16s7.178 16.001 16 16.001S32 24.822 32 16 24.822 0 16 0zM1.615 16c0-2.086.447-4.065 1.246-5.854l6.861 18.8C4.924 26.615 1.615 21.694 1.615 16zM16 30.386a14.37 14.37 0 01-4.063-.585l4.316-12.542 4.422 12.114c.029.07.064.136.103.197a14.32 14.32 0 01-4.778.816zm1.982-21.131c.866-.045 1.646-.136 1.646-.136.775-.092.684-1.231-.092-1.186 0 0-2.329.183-3.834.183-1.414 0-3.789-.183-3.789-.183-.775-.046-.866 1.139-.091 1.186 0 0 .734.091 1.509.136l2.241 6.142-3.148 9.441L7.187 9.255c.867-.045 1.646-.136 1.646-.136.773-.092.684-1.231-.092-1.186 0 0-2.33.183-3.835.183-.27 0-.588-.006-.926-.018C6.554 4.193 10.975 1.615 16 1.615a14.33 14.33 0 019.715 3.777c-.062-.005-.123-.013-.187-.013-1.413 0-2.416 1.231-2.416 2.554 0 1.186.684 2.188 1.413 3.374.547.957 1.187 2.188 1.187 3.968 0 1.23-.474 2.659-1.095 4.65l-1.436 4.793-5.199-15.463zm10.641-.156A14.316 14.316 0 0130.385 16c0 5.308-2.876 9.94-7.152 12.435l4.394-12.704c.82-2.052 1.094-3.693 1.094-5.151a11.022 11.022 0 00-.098-1.481z" fill="#21759B"/></symbol></svg>