<?xml version="1.0" standalone="no"?>
<!DOCTYPE svg PUBLIC "-//W3C//DTD SVG 20010904//EN"
 "http://www.w3.org/TR/2001/REC-SVG-20010904/DTD/svg10.dtd">
<svg version="1.0" xmlns="http://www.w3.org/2000/svg"
 width="944.000000pt" height="944.000000pt" viewBox="0 0 944.000000 944.000000"
 preserveAspectRatio="xMidYMid meet">
<metadata>
Created by potrace 1.14, written by Peter Selinger 2001-2017
</metadata>
<g transform="translate(0.000000,944.000000) scale(0.100000,-0.100000)"
fill="#000000" stroke="none">
<path d="M80 4720 l0 -4720 4640 0 4640 0 0 4720 0 4720 -4640 0 -4640 0 0
-4720z m9120 0 l0 -4560 -4480 0 -4480 0 0 4560 0 4560 4480 0 4480 0 0 -4560z"/>
<path d="M4128 5614 l-3 -646 -43 61 c-88 126 -267 239 -442 281 -107 25 -296
27 -408 4 -218 -45 -423 -182 -545 -367 -119 -179 -177 -407 -177 -697 0 -247
38 -430 125 -605 125 -253 312 -399 589 -462 108 -24 328 -21 431 6 179 47
352 163 437 295 l38 59 0 -171 0 -172 210 0 210 0 0 1530 0 1530 -210 0 -210
0 -2 -646z m-434 -634 c105 -27 169 -63 246 -140 111 -111 168 -248 191 -459
18 -168 -1 -367 -50 -505 -62 -177 -208 -317 -375 -362 -85 -23 -212 -27 -299
-10 -265 52 -429 258 -467 586 -26 227 2 441 77 600 43 90 150 203 232 244
128 65 301 83 445 46z"/>
<path d="M5160 4730 l0 -1530 210 0 210 0 0 480 c0 264 3 480 8 480 4 -1 230
-216 502 -480 l495 -479 265 0 265 0 -550 545 -550 544 505 505 505 505 -255
0 -255 0 -465 -462 -465 -463 -3 943 -2 942 -210 0 -210 0 0 -1530z"/>
</g>
</svg>
